<?xml version="1.0"?>
<svg version="1.1" xmlns="http://www.w3.org/2000/svg" width="400px" height="200px" style="border: dashed 2px #aaa"><path fill="#000000" d="M68.27,104.2l-0.805-3.36s-1.645-0.56-3.92-0.56c-3.675,0-5.775,2.73-5.775,8.575c0,5.67,2.275,8.05,5.95,8.05c3.5,0,6.65-2.45,6.65-2.45l1.925,3.15s-3.675,3.815-9.17,3.815c-7.105,0-11.2-4.27-11.2-12.39c0-8.225,4.62-13.125,11.795-13.125c4.235,0,8.155,1.645,8.155,1.645l-0.175,6.65l-3.43,0z M83.54785,116.975l0-16.45l-3.325,0l-0.875,3.325l-3.22,0l0-7.525l20.3,0l0,7.525l-3.255,0l-0.875-3.325l-3.325,0l0,16.45l3.325,1.05l0,2.975l-12.075,0l0-2.975z M108.4857,96.325l3.675,0c4.55,0,7.7,1.925,7.7,6.055c0,3.045-1.435,4.9-4.2,5.775c3.29,0.945,5.005,2.905,5.005,5.6c0,5.145-3.43,7.245-9.1,7.245l-11.13,0l0-2.975l2.625-1.05l0-16.45l-2.625-1.05l0-2.975z M108.4857,106.405l2.03,0c2.555,0,3.92-1.085,3.92-3.255c0-1.82-1.295-2.625-2.975-2.625l-2.975,0l0,5.88z M108.4857,116.8l2.905,0c2.45,0,3.745-1.12,3.745-3.045c0-2.555-1.47-3.675-4.62-3.675l-2.03,0l0,6.72z M139.12855,116.8l0.77-3.85l3.325,0l0,8.05l-17.5,0l0-2.975l2.625-1.05l0-16.45l-2.625-1.05l0-2.975l10.675-0.175l0,3.15l-2.625,1.05l0,16.275l5.355,0z"/><path fill="#" d=""/></svg>
