<?xml version="1.0"?>
<svg version="1.1" xmlns="http://www.w3.org/2000/svg" width="400px" height="200px" style="border: dashed 2px #aaa"><path fill="#ffffff" d="M76.1,106l-1.15-4.8s-2.35-0.8-5.6-0.8c-5.25,0-8.25,3.9-8.25,12.25c0,8.1,3.25,11.5,8.5,11.5c5,0,9.5-3.5,9.5-3.5l2.75,4.5s-5.25,5.45-13.1,5.45c-10.15,0-16-6.1-16-17.7c0-11.75,6.6-18.75,16.85-18.75c6.05,0,11.65,2.35,11.65,2.35l-0.25,9.5l-4.9,0z M97.9255,124.25l0-23.5l-4.75,0l-1.25,4.75l-4.6,0l0-10.75l29,0l0,10.75l-4.65,0l-1.25-4.75l-4.75,0l0,23.5l4.75,1.5l0,4.25l-17.25,0l0-4.25z M133.551,94.75l5.25,0c6.5,0,11,2.75,11,8.65c0,4.35-2.05,7-6,8.25c4.7,1.35,7.15,4.15,7.15,8c0,7.35-4.9,10.35-13,10.35l-15.9,0l0-4.25l3.75-1.5l0-23.5l-3.75-1.5l0-4.25z M133.551,109.15l2.9,0c3.65,0,5.6-1.55,5.6-4.65c0-2.6-1.85-3.75-4.25-3.75l-4.25,0l0,8.4z M133.551,124l4.15,0c3.5,0,5.35-1.6,5.35-4.35c0-3.65-2.1-5.25-6.6-5.25l-2.9,0l0,9.6z M177.3265,124l1.1-5.5l4.75,0l0,11.5l-25,0l0-4.25l3.75-1.5l0-23.5l-3.75-1.5l0-4.25l15.25-0.25l0,4.5l-3.75,1.5l0,23.25l7.65,0z"/><path fill="#" d=""/></svg>
